<?xml version="1.0" encoding="UTF-8"?>
<svg preserveAspectRatio="xMidYMid slice" xmlns="http://www.w3.org/2000/svg" width="1200px" height="211px" fill="none" viewBox="0 0 1140 200">
  <path stroke="#563E31" stroke-miterlimit="10" stroke-width="2" d="M530.395 191.506h-5.557"></path>
  <path fill="#563E31" d="M650.355 43.95c-5.993 5.433-11.986 8.79-13.293 7.507-1.416-1.284 2.397-6.618 8.281-12.05 5.992-5.432 11.985-8.79 13.292-7.506 1.417 1.284-2.288 6.617-8.28 12.05z"></path>
  <path stroke="#fff" stroke-miterlimit="10" stroke-width="2" d="M670.838 47.012c0 8.593-7.736 15.605-17.215 15.605M663.974 47.012c0 5.136-4.576 9.284-10.242 9.284"></path>
  <path fill="#E94F2D" d="M634.596 14.533l-5.007 4.54 3.313 3.002 5.007-4.54-3.313-3.002z"></path>
  <path fill="#E94F2D" d="M615.162 23.111l1.634 1.482 2.724-2.47 3.269 2.963-5.012 4.544 3.378 3.061 5.011-4.543 7.083 6.42c-.872 2.272-.218 5.234 1.416 7.21-1.09 3.753-.327 7.407 2.397 9.778-1.416-1.284 2.397-6.618 8.281-12.05 5.992-5.432 11.985-8.79 13.292-7.506-2.724-2.47-6.755-3.062-10.786-2.173-2.18-1.481-5.448-2.074-7.954-1.284L626.166 16.1l2.724-2.47-1.634-1.48c-.981-.89-2.615-.89-3.595 0l-8.499 7.703a2.173 2.173 0 000 3.26z"></path>
  <path fill="#fff" d="M641.202 20.543L629.544 9.975 640.767 0l15.253 12.84-14.818 7.703z"></path>
  <path stroke="#563E31" stroke-miterlimit="10" d="M634.556 3.95l15.036 13.63"></path>
  <path fill="#fff" d="M624.532 35.654l-11.658-10.568-11.005 10.173 14.165 13.926 8.498-13.53z"></path>
  <path stroke="#563E31" stroke-miterlimit="10" d="M606.228 29.63l15.035 13.728"></path>
  <path stroke="#fff" stroke-miterlimit="10" stroke-width="2" d="M654.931 48.099l-9.588-8.593"></path>
  <path fill="#563E31" d="M656.565 49.58c-.872.79-2.397.79-3.378 0-.871-.79-.871-2.173 0-3.062.872-.79 2.397-.79 3.378 0 .872.89.872 2.272 0 3.062z"></path>
  <path stroke="#fff" stroke-miterlimit="10" stroke-width="2" d="M677.702 47.111c0 11.95-10.677 21.63-23.861 21.63"></path>
  <path stroke="#563E31" stroke-miterlimit="10" stroke-width="2" d="M626.929 16.691l-6.646 6.025"></path>
  <path fill="#E2E1E1" stroke="#EDEDED" stroke-miterlimit="10" d="M73.763 71.605H50.446v30.222h23.317V71.605z"></path>
  <path fill="#fff" d="M50.446 101.827V71.605h23.317l-23.317 30.222z"></path>
  <path fill="#E2E1E1" stroke="#EDEDED" stroke-miterlimit="10" d="M97.08 71.605H73.762v30.222h23.316V71.605z"></path>
  <path fill="#fff" d="M73.763 101.827V71.605h23.425l-23.425 30.222z"></path>
  <path fill="#E2E1E1" stroke="#EDEDED" stroke-miterlimit="10" d="M73.763 101.827H50.446v30.222h23.317v-30.222z"></path>
  <path fill="#fff" d="M50.446 131.95v-30.123h23.317L50.446 131.95z"></path>
  <path fill="#E2E1E1" stroke="#EDEDED" stroke-miterlimit="10" d="M97.08 101.827H73.762v30.222h23.316v-30.222z"></path>
  <path fill="#fff" d="M73.763 131.95v-30.123h23.425L73.763 131.95z"></path>
  <path fill="#E2E1E1" stroke="#EDEDED" stroke-miterlimit="10" d="M73.763 131.95H50.446v30.223h23.317V131.95z"></path>
  <path fill="#fff" d="M50.446 162.173V131.95h23.317l-23.317 30.223z"></path>
  <path fill="#E2E1E1" stroke="#EDEDED" stroke-miterlimit="10" d="M97.08 131.95H73.762v30.223h23.316V131.95z"></path>
  <path fill="#fff" d="M73.763 162.173V131.95h23.425l-23.425 30.223z"></path>
  <path fill="#E2E1E1" stroke="#EDEDED" stroke-miterlimit="10" d="M73.763 162.173H50.446v30.222h23.317v-30.222z"></path>
  <path fill="#fff" d="M50.446 192.296v-30.123h23.317l-23.317 30.123z"></path>
  <g>
    <path fill="#E2E1E1" stroke="#EDEDED" stroke-miterlimit="10" d="M97.08 162.173H73.762v30.222h23.316v-30.222z"></path>
    <path fill="#fff" d="M73.763 192.296v-30.123h23.425l-23.425 30.123z"></path>
  </g>
  <path stroke="#563E31" stroke-miterlimit="10" d="M73.763 192.197V71.507"></path>
  <path stroke="#563E31" stroke-miterlimit="10" stroke-width="2" d="M98.169 71.605H49.466"></path>
  <path stroke="#563E31" stroke-miterlimit="10" d="M98.169 101.827H49.466"></path>
  <path fill="#563E31" d="M91.958 53.63h-36.39v18.074h36.39V53.63z"></path>
  <path fill="#563E31" d="M85.421 39.901H62.213v14.025h23.208V39.9z"></path>
  <path fill="#563E31" d="M77.14 38.518h-6.755v7.902h6.755v-7.902z"></path>
  <path stroke="#563E31" stroke-miterlimit="10" stroke-width="2" d="M73.763 39.407V8"></path>
  <path fill="#C1892B" d="M90.324 55.21H57.31v4.642h33.014V55.21zM90.324 66.074H57.31v4.642h33.014v-4.642zM83.787 41.58h-19.94v4.642h19.94V41.58zM90.324 61.333H57.31v3.26h33.014v-3.26z"></path>
  <path fill="#563E31" d="M75.942 14.518c0 1.087-.98 1.976-2.18 1.976-1.198 0-2.178-.89-2.178-1.976 0-1.086.98-1.975 2.179-1.975 1.198 0 2.179.889 2.179 1.975z"></path>
  <path stroke="#563E31" stroke-miterlimit="10" d="M98.169 132.049H49.466M98.169 162.271H49.466"></path>
  <g>
    <path fill="#563E31" d="M50.446 154.469v-32.198c-22.444 0-41.403 13.531-47.395 32.198h47.395z"></path>
    <path fill="#FFE054" d="M50.446 154.469H4.903v37.827h45.543v-37.827z"></path>
    <path fill="#E94F2D" d="M31.052 181.333h-15.69v10.963h15.69v-10.963z"></path>
    <path fill="#fff" d="M15.363 192.296v-10.963h15.69l-15.69 10.963z"></path>
    <path stroke="#563E31" stroke-miterlimit="10" stroke-width="2" d="M50.446 170.765H2.615M50.446 181.432H2.615"></path>
    <path stroke="#563E31" stroke-miterlimit="10" stroke-width="4" d="M6.864 192.296v-35.753M15.254 192.296v-35.753M31.161 192.296v-35.753M39.442 192.296v-35.753"></path>
    <path fill="#C1892B" d="M28.655 127.013l21.791 27.555v-32.197c-7.844 0-15.253 1.679-21.79 4.642z"></path>
    <path stroke="#EDEDED" stroke-miterlimit="10" d="M6.864 192.296v-35.753M15.254 192.296v-35.753M31.161 192.296v-35.753M39.442 192.296v-35.753"></path>
    <path fill="#E94F2D" d="M50.446 154.469H4.903v1.778h45.543v-1.778z"></path>
    <path stroke="#563E31" stroke-miterlimit="10" stroke-width="2" d="M50.446 156.642H2.615M50.446 160.099H2.615"></path>
    <g>
      <path fill="#fff" d="M20.266 143.802c1.198-.098 1.743-.197 2.506-.197 2.07 0 3.16.691 3.16 1.778 0 .691-.436 1.086-1.308 1.382 1.09.198 1.634.79 1.634 1.679 0 1.383-1.09 1.976-3.595 1.976-.872 0-1.417 0-2.506-.198v-6.42h.109zm1.96 2.47v.197h.981c.436 0 .763-.395.763-.79 0-.494-.436-.79-1.198-.79h-.654v1.383h.109zm.219 1.283h-.218v1.679c.327 0 .436.099.654.099.98 0 1.416-.296 1.416-.889 0-.592-.545-.889-1.416-.889h-.436z"></path>
    </g>
  </g>
  <path stroke="#563E31" stroke-linecap="round" stroke-miterlimit="10" d="M107.757 67.358s2.724.494 4.031 4.444c0 0 2.397-6.617 8.39-6.716M118.652 55.111s1.526.691 2.724 2.766c0 0 2.179-4.05 5.339-4.346M110.808 59.753s1.307.593 1.852 1.383c0 0 1.416-2.074 3.595-2.47"></path>
  <g>
    <path fill="#E94F2D" d="M154.281 104.691V92.148h-8.39c-1.089-2.667-2.724-5.333-4.467-7.605h-23.425c-1.853 2.272-3.378 4.938-4.467 7.605h-8.39v12.543h-7.191v87.605h63.521v-87.605h-7.191z"></path>
    <path fill="#563E31" d="M139.354 82.173c-2.833-2.766-6.102-4.642-9.588-4.642-3.487 0-6.755 1.876-9.588 4.642-.763.691-1.417 1.58-2.07 2.37h23.425c-.763-.889-1.416-1.679-2.179-2.37z"></path>
    <path fill="#F5B3C4" d="M112.224 104.988h-5.23V98.37c0-2.666 2.397-4.74 5.23-4.74v11.358z"></path>
    <path fill="#fff" d="M118.87 93.729h-5.229v11.358h5.229V93.729zM125.626 93.729h-5.23v11.358h5.23V93.729z"></path>
    <path fill="#F5B3C4" d="M132.381 93.729h-5.23v11.358h5.23V93.729z"></path>
    <path fill="#fff" d="M139.027 93.729h-5.23v11.358h5.23V93.729z"></path>
    <path fill="#F5B3C4" d="M145.782 93.729h-5.23v11.358h5.23V93.729zM152.538 104.988h-5.23v-11.26c2.942 0 5.23 2.174 5.23 4.742v6.518zM112.224 117.827h-5.23v11.358h5.23v-11.358zM118.87 117.827h-5.229v11.358h5.229v-11.358zM125.626 117.827h-5.23v11.358h5.23v-11.358zM132.381 117.827h-5.23v11.358h5.23v-11.358zM139.027 117.827h-5.23v11.358h5.23v-11.358z"></path>
    <path fill="#fff" d="M145.782 117.827h-5.23v11.358h5.23v-11.358zM152.538 117.827h-5.23v11.358h5.23v-11.358z"></path>
    <path fill="#F5B3C4" d="M159.184 117.827h-5.23v11.358h5.23v-11.358zM105.469 117.827h-5.23v11.358h5.23v-11.358z"></path>
    <path fill="#fff" d="M112.224 130.37h-5.23v11.358h5.23V130.37zM118.87 130.37h-5.229v11.358h5.229V130.37z"></path>
    <path fill="#F5B3C4" d="M125.626 130.37h-5.23v11.358h5.23V130.37z"></path>
    <path fill="#fff" d="M132.381 130.37h-5.23v11.358h5.23V130.37zM139.027 130.37h-5.23v11.358h5.23V130.37z"></path>
    <path fill="#F5B3C4" d="M145.782 130.37h-5.23v11.358h5.23V130.37zM152.538 130.37h-5.23v11.358h5.23V130.37zM159.184 130.37h-5.23v11.358h5.23V130.37z"></path>
    <path fill="#fff" d="M105.469 130.37h-5.23v11.358h5.23V130.37z"></path>
    <path fill="#F5B3C4" d="M112.224 142.815h-5.23v11.358h5.23v-11.358z"></path>
    <path fill="#fff" d="M118.87 142.815h-5.229v11.358h5.229v-11.358z"></path>
    <path fill="#F5B3C4" d="M125.626 142.815h-5.23v11.358h5.23v-11.358zM132.381 142.815h-5.23v11.358h5.23v-11.358zM139.027 142.815h-5.23v11.358h5.23v-11.358z"></path>
    <path fill="#fff" d="M145.782 142.815h-5.23v11.358h5.23v-11.358z"></path>
    <path fill="#F5B3C4" d="M152.538 142.815h-5.23v11.358h5.23v-11.358z"></path>
    <path fill="#fff" d="M159.184 142.815h-5.23v11.358h5.23v-11.358z"></path>
    <path fill="#F5B3C4" d="M105.469 142.815h-5.23v11.358h5.23v-11.358zM112.224 155.358h-5.23v11.358h5.23v-11.358zM118.87 155.358h-5.229v11.358h5.229v-11.358z"></path>
    <path fill="#fff" d="M125.626 155.358h-5.23v11.358h5.23v-11.358zM132.381 155.358h-5.23v11.358h5.23v-11.358z"></path>
    <path fill="#F5B3C4" d="M139.027 155.358h-5.23v11.358h5.23v-11.358z"></path>
    <path fill="#fff" d="M145.782 155.358h-5.23v11.358h5.23v-11.358zM152.538 155.358h-5.23v11.358h5.23v-11.358z"></path>
    <path fill="#F5B3C4" d="M159.184 155.358h-5.23v11.358h5.23v-11.358z"></path>
    <path fill="#fff" d="M105.469 155.358h-5.23v11.358h5.23v-11.358z"></path>
    <g>
      <path fill="#F5B3C4" d="M112.224 167.901h-5.23v11.358h5.23v-11.358z"></path>
      <path fill="#fff" d="M118.87 167.901h-5.229v11.358h5.229v-11.358z"></path>
      <path fill="#F5B3C4" d="M125.626 167.901h-5.23v11.358h5.23v-11.358zM132.381 167.901h-5.23v11.358h5.23v-11.358zM139.027 167.901h-5.23v11.358h5.23v-11.358zM145.782 167.901h-5.23v11.358h5.23v-11.358zM152.538 167.901h-5.23v11.358h5.23v-11.358zM159.184 167.901h-5.23v11.358h5.23v-11.358zM105.469 167.901h-5.23v11.358h5.23v-11.358z"></path>
    </g>
    <path stroke="#563E31" stroke-miterlimit="10" stroke-width="2" d="M162.344 167.309H97.188M162.344 154.765H97.188M162.344 142.222H97.188M162.344 129.679H97.188M162.344 117.234H97.188"></path>
    <g>
      <path fill="#F5B3C4" d="M139.027 180.741h-18.631v11.555h18.631v-11.555z"></path>
      <path fill="#fff" d="M120.396 192.296v-11.555h18.631l-18.631 11.555z"></path>
      <path stroke="#563E31" stroke-miterlimit="10" d="M129.766 180.741v11.555"></path>
      <path stroke="#563E31" stroke-miterlimit="10" stroke-width="2" d="M120.396 181.531h18.631"></path>
    </g>
    <path stroke="#EDEDED" stroke-miterlimit="10" d="M159.184 107.16h-58.836M159.184 109.531h-58.836M159.184 111.901h-58.836M159.184 114.173h-58.836"></path>
  </g>
  <g>
    <path fill="#fff" d="M181.411 187.16s-.327 3.556-.327 3.852c0 .296 2.724-.296 2.724-.296l.109-3.26-2.506-.296zM191.435 187.457l-.109 3.555 2.614-1.383.218-2.172h-2.723z"></path>
    <path fill="#563E31" d="M174.988 155.105l-18.546-1.616-1.199 11.306 18.546 1.616 1.199-11.306z"></path>
    <path stroke="#563E31" stroke-miterlimit="10" d="M162.125 155.358l.218-1.679c.109-.988 1.09-1.778 2.18-1.679l2.832.198c1.09.098 1.962.987 1.853 1.975l-.218 1.679"></path>
    <path fill="#fff" d="M167.9 151.901c.109-.198 0-.395 0-.889l-1.525-1.284s-1.852.79-1.852 2.864c0 0 .109.692.98.593.763-.099.763-.494.981-.79.218-.296.327-.395.654-.494h.762zM202.766 158.617s-.436 1.284-.327 1.975c.109.692.109 1.186.436 1.186.436 0 0-.988.218-.988.327 0 .436.395.545 1.481.109.494.871.692 1.307.099.436-.494.327-2.469-.327-3.753h-1.852z"></path>
    <path fill="#C1892B" d="M188.493 192.395c-.109-.889-1.417-1.284-2.288-1.482-.872-.098-2.288-1.284-2.288-1.284-1.526.692-2.615 0-2.615 0-1.09.692-1.308 2.074-1.308 2.667h8.499v.099zM198.626 192.395c-.109-.889-1.417-1.284-2.288-1.482-.872-.098-2.289-1.284-2.289-1.284-1.525.692-2.614 0-2.614 0-1.09.692-1.308 2.074-1.308 2.667h8.499v.099zM166.947 159.364l-3.579-.312-.073.688 3.579.312.073-.688z"></path>
    <path fill="#563E31" d="M188.82 156.642v-28.84c-1.744.593-7.3 2.568-8.826 4.741-1.961 2.667-1.416 9.185-5.121 11.852-3.704 2.667-8.498 5.333-8.498 5.333l.871 1.482s10.242-2.766 13.947-7.013l-.327 13.334h8.389v-.79h-.435v-.099zM204.618 158.617c-.218-.79-2.07-15.308-2.397-18.864-.218-1.877-.871-4.148-1.416-5.926-.763-2.37-3.814-4.444-6.211-5.63-.327-.098-.653-.296-.871-.395-.109 0-.109 0-.218-.098v28.839h-.545v.79H198.844l-.109-10.666c1.525 5.234 4.031 11.851 4.031 11.851h1.852v.099z"></path>
    <path fill="#C1892B" d="M190.89 127.407c-.872 0-1.308.199-1.308.199s.327-.199 1.308-.199z"></path>
    <path fill="#FFE054" d="M193.069 127.704c-.436-.099-.872-.198-1.199-.198-.326 0-.653-.099-.98-.099-.872 0-1.308.198-1.308.198s-.109 0-.218.099c-.109 0-.218.098-.435.098v29.63h4.685v-29.63c-.218 0-.436-.098-.545-.098z"></path>
    <path fill="#563E31" d="M197.645 152.099h-15.472v5.432s1.744 12.543 2.288 16.197c0 0-3.704 9.679-3.813 14.716h4.249s3.378-10.963 4.685-14.716l.654-11.654 3.16 11.654s-3.051 8.692-2.833 14.716h4.249l3.596-14.617-.981-16.395.218-5.333zM191.87 130.469c-.109-.691-.327-.889-.435-.889l.544-.494v-.691h-1.525v.691l.545.494c-.109.099-.327.297-.436.889-.109.889-.436 19.457-.436 19.457v-.198l1.09.988 1.089-.988v.198s-.327-18.568-.436-19.457z"></path>
    <path fill="#fff" d="M188.057 124.247s.872 3.16 3.378 3.358c2.505.197 2.941-4.543 2.723-5.827-.218-1.186-1.743-3.161-3.486-1.976-1.852 1.284-2.615 4.445-2.615 4.445z"></path>
    <path fill="#563E31" d="M188.057 124.247s1.089-1.482 1.743-2.963c0 0 3.051 1.185 4.358.79 1.308-.395 1.308-1.185.981-1.58-.327-.297-1.961-.593-2.288-.889 0 0 .654-.593 0-.988-.654-.296-3.269.296-4.031.988-.763.691-1.417 1.383-1.308 2.469.109 1.383.545 2.173.545 2.173z"></path>
  </g>
  <g>
    <path fill="#fff" d="M589.884 131.654s-7.518 7.21-6.21 26.074h1.961s2.179-15.506 7.518-18.568l-3.269-7.506z"></path>
    <path fill="#E94F2D" d="M604.048 152.099h-11.44s-2.724 7.407-2.833 14.222l-.544 1.086c-.436.79-.545 1.778-.327 2.766l.436 1.679c-.545.494-.981 1.284-.981 1.975l.218 16h4.467s1.743-11.951 2.288-14.914c.545-2.962.763-11.259 1.852-12.049 1.635-1.185 2.07 9.58 2.397 11.358.218 1.679 1.526 3.852 1.526 3.852l-.109.296c-.218.692-.109 1.383.327 1.877l.217.197 1.09 9.383h4.358c-.218-14.321 0-13.728-.98-18.074 0-.198-.109-.494-.109-.691-.545-2.865-.763-5.729-.545-8.593-.218-2.173 1.416-6.518-1.308-10.37z"></path>
    <path fill="#563E31" d="M602.305 189.728s-5.121-.197-5.121 2.667h10.569s-.436-2.074-.981-2.667h-4.467zM588.359 189.728s-5.121-.197-5.121 2.667h10.569s-.436-2.074-.981-2.667h-4.467z"></path>
    <path fill="#fff" d="M608.951 131.753c.763 1.086 1.308 2.37 1.853 3.556 1.089 2.666 1.743 5.432 2.07 8.296.436 5.136.545 10.37-1.526 15.21l-1.743-.494c.545-4.148.545-8.494-.436-12.642a14.467 14.467 0 00-1.634-4.049c-.436-.692-.981-.988-1.634-1.482-.981-.691-1.417-1.975-1.308-3.062 0-1.284.654-2.469 1.526-3.456.544-.593 1.198-.988 1.852-1.581.327-.296-.436-.987.109-1.086l.871.79zM585.526 157.63s.436 1.283.327 1.975c0 .691-.109 1.185-.436 1.185-.436 0 0-.988-.218-.988-.327 0-.436.395-.545 1.482-.108.494-.871.691-1.307.099-.436-.494-.327-2.47.327-3.753h1.852zM609.496 158.321s-.871 1.185-.98 1.778c-.218.691-.218 1.086 0 1.185.327.099.327-.988.544-.889.327.099.327.494 0 1.58-.108.494.654.889 1.199.494s1.198-2.272.981-3.654l-1.744-.494z"></path>
    <path fill="#563E31" d="M592.643 152.051h11.44v-2.864h-11.44v2.864z"></path>
    <path fill="#E94F2D" d="M608.734 131.654s-1.09-1.382-3.378-2.173c-2.288-.79-4.249-1.283-6.537-1.481 0 0-4.903.198-9.044 3.654l.436 1.185c.436 1.186.545 2.47.218 3.655l-.436 1.382c-.109.593-.109 1.186.218 1.679l1.417 2.47.109.592.544 6.716h11.441c.544-1.679 1.089-3.259 1.634-4.938.218-.79 1.09-3.259 1.09-3.259s-.545-.988-.654-1.877c-.109-.987 0-2.074.327-3.062.327-.888.545-1.58 1.198-2.765.872-1.185 1.417-1.778 1.417-1.778zM605.473 152.068h1.089v-3.852h-1.089v3.852zM603.62 152.075h1.525v-1.876h-1.525v1.876z"></path>
    <path fill="#fff" d="M605.138 152.099v-3.852h.545v3.852M590.538 148.839c-.327 0-.545.198-.545.494v4.247c0 .296.218.494.545.494.327 0 .545-.198.545-.494v-4.247c0-.296-.327-.494-.545-.494z"></path>
    <path fill="#E94F2D" d="M592.608 150.123h-1.525V152h1.525v-1.877z"></path>
    <path fill="#563E31" d="M589.122 158.617h-1.199v-6.518h6.429v1.876c0 2.568-2.289 4.642-5.23 4.642z"></path>
    <path fill="#E94F2D" d="M600.671 148.444c-.327.099-.436.395-.327.593l1.525 3.951c.109.296.436.395.654.296.327-.099.436-.395.327-.593l-1.525-3.95a.499.499 0 00-.654-.297z"></path>
    <path fill="#563E31" d="M604.484 158.617h3.378v-6.518h-8.607v1.876c0 2.568 2.397 4.642 5.229 4.642z"></path>
    <path fill="#fff" d="M601.978 124.839s-.871 3.161-3.377 3.359c-2.506.197-3.378-3.655-2.833-6.815.218-1.186 1.743-2.173 3.595-.889 1.853 1.185 2.615 4.345 2.615 4.345z"></path>
    <path fill="#563E31" d="M601.978 124.839s-4.358-1.777-6.101-3.456c-.218-.198.109-.889.871-1.581.872-.691 2.397-.592 3.16-.395.872.297 4.249 1.284 2.07 5.432z"></path>
    <path fill="#563E31" d="M602.196 123.753s3.051.593 3.596 4.049c.436 3.457 1.416 3.655 1.416 3.655s-4.576 1.382-5.23-6.618l.218-1.086z"></path>
    <path fill="#E94F2D" d="M604.702 122.866c.981-2.47-.327-5.136-3.05-6.124-2.724-.889-5.666.296-6.756 2.766l9.806 3.358zM604.92 123.358c-.109.197-.327.296-.545.197l-4.14-1.382s-1.961-.297-3.377-.692c-1.417-.494-2.615-1.086-3.051-1.382-.218-.099-.218-.297-.218-.494.109-.198.327-.296.545-.198l10.459 3.556c.327 0 .436.197.327.395z"></path>
    <path fill="#E94F2D" d="M600.998 116.543c-.109.296 0 .593.327.79.327.099.653 0 .871-.296.109-.296 0-.593-.327-.79-.435-.198-.762 0-.871.296z"></path>
    <path fill="#563E31" d="M601.761 119.506c-.327-.099-.436-.395-.327-.593l.763-1.876c.326.197.653.296.98.592l-.654 1.679c-.218.198-.544.297-.762.198zM599.472 118.815c-.326-.098-.435-.395-.326-.592l.653-1.679c.327 0 .763.099 1.09.099l-.763 1.876c0 .198-.327.395-.654.296z"></path>
  </g>
  <path fill="#fff" d="M856.825 49.877c1.416-1.482 3.704-2.173 5.775-1.68 2.07.396 3.813 1.976 4.467 3.852.327 1.087.327 2.272.98 3.16 1.199 1.877 4.25 1.877 5.884 3.458 1.634 1.481 1.525 3.95.109 5.63-1.417 1.58-3.705 2.37-5.993 2.27-1.416 0-3.05-.295-4.249.396-1.961 1.185-1.525 4.148-3.16 5.728-1.525 1.383-4.685 2.667-7.518.692-.435-.297-.762-.692-1.198-1.087-1.416-1.58-4.14-1.383-5.339.296-.327.396-.545.692-.872.89-1.634 1.185-3.922 1.678-5.774.79-2.397-1.186-3.051-4.247-5.448-5.531-2.724-1.482-6.319 0-9.37-.79-.327-.1-.654-.297-.981-.494-6.21-4.05-1.852-9.877 2.833-9.68 1.852.1 3.705.89 5.557.593 2.724-.395 4.14-3.061 5.23-5.333 1.089-2.272 2.506-4.84 5.556-4.84 3.16 0 3.705 1.482 5.23 2.667 2.397 1.877 5.993 1.383 7.845-.889.218.1.327 0 .436-.099zM889.402 79.111c-2.614 0-5.229 1.383-7.844.889-3.705-.79-3.487-4.346-8.39-4.346-4.903 0-5.774 4.346-8.716 5.136-1.852.494-3.923-.296-5.557.395-.109 0-.218.099-.327.099-4.249 2.271-3.377 6.222-1.525 8.395 1.852 2.173 5.121 2.37 6.973 1.876v.198c0 1.481 1.416 2.765 3.051 2.765.871 0 1.634-.296 2.179-.79a1.13 1.13 0 011.525 0c.981.988 2.179 1.877 4.467 1.877 4.576 0 5.23-4.247 8.608-5.432 3.377-1.284 7.627 1.185 10.786-1.68.545-.493.981-1.086 1.199-1.777 1.743-4.247-2.288-7.704-6.429-7.605z"></path>
  <g>
    <path fill="#FFE054" d="M763.232 154.864h-63.194v37.531H826.1v-37.531h-62.868z"></path>
    <path fill="#563E31" d="M763.123 149.827h-63.085v7.111h63.085v-7.111z"></path>
    <path fill="#563E31" d="M826.1 149.827h-63.086v7.111H826.1v-7.111z"></path>
    <path fill="#563E31" d="M794.611 130.47l15.799 9.679 15.69 9.679h-63.086l15.799-9.679 15.798-9.679zM800.386 163.852c1.525 0 2.724 1.086 2.724 2.469v8.197h-5.339v-8.197c0-1.383 1.199-2.469 2.615-2.469zM792.759 163.852c1.526 0 2.724 1.086 2.724 2.469v8.197h-5.339v-8.197c-.109-1.383 1.09-2.469 2.615-2.469z"></path>
    <path fill="#fff" d="M808.122 163.852c1.525 0 2.724 1.086 2.724 2.469v8.197h-5.339v-8.197c-.109-1.383 1.09-2.469 2.615-2.469z"></path>
    <path fill="#C1892B" d="M734.795 174.716h-21.246v17.679h21.246v-17.679z"></path>
    <path fill="#fff" d="M713.549 192.395v-17.679h21.246l-21.246 17.679z"></path>
    <path stroke="#563E31" stroke-miterlimit="10" d="M712.35 186.765h23.644"></path>
    <path fill="#563E31" d="M731.526 130.47l15.69 9.679 15.798 9.679h-63.085l15.799-9.679 15.798-9.679z"></path>
    <path stroke="#EDEDED" stroke-miterlimit="10" d="M733.814 130.37v19.457M731.526 130.37v19.457M736.103 130.37v19.457M738.391 130.37v19.457M740.679 130.37v19.457M743.076 130.37v19.457M745.364 130.37v19.457M747.652 130.37v19.457M749.94 130.37v19.457M752.228 130.37v19.457M754.516 130.37v19.457M756.913 130.37v19.457M759.201 130.37v19.457M761.489 130.37v19.457M701.455 130.37v19.457M703.852 130.37v19.457M706.14 130.37v19.457M708.428 130.37v19.457M710.716 130.37v19.457M713.004 130.37v19.457M715.292 130.37v19.457M717.689 130.37v19.457M719.977 130.37v19.457M722.265 130.37v19.457M724.553 130.37v19.457M726.841 130.37v19.457M729.129 130.37v19.457"></path>
    <g>
      <path stroke="#EDEDED" stroke-miterlimit="10" d="M796.9 130.37v19.457M794.611 130.37v19.457M799.188 130.37v19.457M801.476 130.37v19.457M803.873 130.37v19.457M806.161 130.37v19.457M808.449 130.37v19.457M810.737 130.37v19.457M813.025 130.37v19.457M815.313 130.37v19.457M817.71 130.37v19.457M819.998 130.37v19.457M822.286 130.37v19.457M824.574 130.37v19.457M764.649 130.37v19.457M766.937 130.37v19.457M769.225 130.37v19.457M771.513 130.37v19.457M773.801 130.37v19.457M776.089 130.37v19.457M778.486 130.37v19.457M780.774 130.37v19.457M783.062 130.37v19.457M785.35 130.37v19.457M787.638 130.37v19.457M790.035 130.37v19.457M792.323 130.37v19.457"></path>
    </g>
    <g>
      <path fill="#563E31" d="M764.54 180.444v-.987h-13.729v.987h.981v2.963h-.981v.988h.981v2.963h-.981v.988h13.729v-.988h-.981v-2.963h.981v-.988h-.981v-2.963h.981z"></path>
      <path fill="#EDEDED" d="M764.54 192.395h-19.067v-3.951h19.067c4.249 0 7.627-3.061 7.627-6.913 0-6.025 5.338-10.864 11.985-10.864h18.849v3.95h-18.849c-4.25 0-7.627 3.062-7.627 6.914 0 5.926-5.339 10.864-11.985 10.864z"></path>
      <path fill="#fff" d="M801.476 172.642c0 .395-.327.79-.872.79-.436 0-.872-.296-.872-.79 0-.395.327-.79.872-.79.545 0 .872.296.872.79zM748.85 190.42c0 .395-.327.79-.871.79-.436 0-.872-.296-.872-.79 0-.395.327-.791.872-.791.544 0 .871.396.871.791z"></path>
    </g>
    <path fill="#fff" d="M734.795 164.247h-21.246v4.839h21.246v-4.839zM758.656 164.247H737.41v4.839h21.246v-4.839z"></path>
  </g>
  <g>
    <path fill="#fff" d="M372.627 52.346c-1.416-3.358-5.012-5.63-8.934-5.63 0 0-.981.099-1.852.197-.872.1-2.07-.79-2.942-1.678-2.615-2.667-6.864-3.655-10.569-2.37-3.704 1.283-6.21 4.542-6.21 8.098 0 0-.109 1.481-.327 2.173-.327.691-.872 1.58-1.743 2.074l-.654.296c-1.199.395-2.615.099-3.487-.79-2.179-2.173-4.794-2.667-6.101-2.864-1.308-.099-1.961 0-3.051.296-1.089.296-2.288-.79-3.16-1.679-2.614-2.667-6.864-3.654-10.568-2.37-3.705 1.284-6.211 4.543-6.211 8.099 0 0 0 .592.109 1.48.109.89-.544 1.384-1.307 1.976-2.07 1.68-2.833 4.445-1.852 6.815.98 2.37 3.595 3.95 6.428 3.95h3.487c.435-1.777 1.198-2.864 2.07-3.259l.653-.296c1.199-.395 2.615-.099 3.487.79 1.961 1.976 4.794 2.963 7.627 2.865h5.774c.436-1.778 1.199-2.865 2.071-3.26l.653-.296c1.199-.395 2.615-.099 3.487.79 2.179 2.173 5.666 3.26 8.172 2.766 2.506-.494 3.268.592 4.14 1.48 2.615 2.668 6.864 3.655 10.569 2.371 3.704-1.284 5.12-3.753 5.774-5.728.763-1.975.109-3.852.218-4.444.109-.593.872-1.482 1.852-2.272 2.833-2.37 3.814-6.222 2.397-9.58z"></path>
    <path fill="#C1892B" d="M234.363 146.765h-20.811l20.811-15.21v15.21zM255.064 146.765h-20.701l20.701-15.21v15.21zM275.875 146.765h-20.811l20.811-15.21v15.21zM296.576 146.765h-20.701l20.701-15.21v15.21z"></path>
    <path fill="#FFE054" d="M213.542 146.842v45.53h128.349v-45.53H213.542z"></path>
    <path fill="#fff" d="M255.064 155.951h-36.391v4.345h36.391v-4.345z"></path>
    <path stroke="#563E31" stroke-miterlimit="10" d="M236.869 155.16v5.926M255.064 155.16v5.926M218.673 155.16v5.926"></path>
    <path fill="#fff" d="M295.923 155.951h-36.391v4.345h36.391v-4.345z"></path>
    <path stroke="#563E31" stroke-miterlimit="10" d="M277.727 155.16v5.926M295.923 155.16v5.926M259.532 155.16v5.926"></path>
    <g>
      <path fill="#fff" d="M336.672 155.951h-36.391v4.345h36.391v-4.345z"></path>
      <path stroke="#563E31" stroke-miterlimit="10" d="M318.476 155.16v5.926M336.781 155.16v5.926M300.281 155.16v5.926"></path>
    </g>
    <g>
      <path fill="#fff" d="M255.064 164.247h-36.391v4.345h36.391v-4.345z"></path>
      <path stroke="#563E31" stroke-miterlimit="10" d="M236.869 163.457v5.925M255.064 163.457v5.925M218.673 163.457v5.925"></path>
    </g>
    <g>
      <path fill="#fff" d="M295.923 164.247h-36.391v4.345h36.391v-4.345z"></path>
      <path stroke="#563E31" stroke-miterlimit="10" d="M277.727 163.457v5.925M295.923 163.457v5.925M259.532 163.457v5.925"></path>
    </g>
    <g>
      <path fill="#fff" d="M336.672 164.247h-36.391v4.345h36.391v-4.345z"></path>
      <path stroke="#563E31" stroke-miterlimit="10" d="M318.476 163.457v5.925M336.781 163.457v5.925M300.281 163.457v5.925"></path>
    </g>
    <g>
      <path fill="#FFE054" d="M260.948 175.605h-35.084v16.691h35.084v-16.691z"></path>
      <path stroke="#fff" stroke-miterlimit="10" d="M225.864 175.605h35.084M225.864 178.074h35.084M225.864 180.444h35.084M225.864 182.815h35.084M225.864 185.185h35.084M225.864 187.654h35.084M225.864 190.025h35.084"></path>
    </g>
    <path stroke="#563E31" stroke-miterlimit="10" stroke-width="2" d="M341.902 181.531c3.486 0 6.428 2.568 6.428 5.827v5.037"></path>
    <g>
      <path fill="#fff" d="M269.773 177.975c-1.525 0-2.723 1.087-2.723 2.469v5.334h5.338v-5.334c.109-1.382-1.089-2.469-2.615-2.469z"></path>
      <path fill="#563E31" d="M277.509 177.975c-1.525 0-2.724 1.087-2.724 2.469v5.334h5.339v-5.334c.109-1.382-1.089-2.469-2.615-2.469zM285.245 177.975c-1.525 0-2.724 1.087-2.724 2.469v5.334h5.339v-5.334c0-1.382-1.199-2.469-2.615-2.469z"></path>
    </g>
    <g>
      <path fill="#C1892B" d="M317.387 146.765h-14.273l2.724-76.148h8.825l2.724 76.148z"></path>
      <path fill="#563E31" d="M303.441 135.802l-.327 10.963h14.273l-.436-10.963h-13.51zM314.99 81.185l-.327-10.568h-8.825l-.436 10.568h9.588z"></path>
      <path stroke="#563E31" stroke-miterlimit="10" d="M304.421 83.95h11.658"></path>
    </g>
    <g>
      <path fill="#C1892B" d="M336.563 146.765h-14.382l2.833-76.148h8.716l2.833 76.148z"></path>
      <path fill="#563E31" d="M322.617 135.802l-.436 10.963h14.382l-.436-10.963h-13.51zM334.166 81.185l-.436-10.568h-8.716l-.436 10.568h9.588z"></path>
      <path stroke="#563E31" stroke-miterlimit="10" d="M323.597 83.95h11.55"></path>
    </g>
    <path stroke="#563E31" stroke-miterlimit="10" stroke-width="2" d="M343.754 174.222H211.591"></path>
  </g>
  <g>
    <path stroke="#563E31" stroke-miterlimit="10" d="M678.901 180.345l-4.14 12.247M691.54 192.592l-4.14-12.247M677.702 184h11.005M676.504 187.555h13.183"></path>
    <g>
      <path fill="#fff" d="M683.15 134.123c-6.21 0-11.331 4.543-11.331 10.272v36.346h22.554v-36.445c.108-5.629-4.903-10.173-11.223-10.173z"></path>
      <path fill="#C1892B" d="M694.482 175.111h-22.554v5.63h22.554v-5.63zM694.482 163.753h-22.554v5.629h22.554v-5.629z"></path>
      <path fill="#fff" d="M684.784 132.642h-3.268v1.481h3.268v-1.481z"></path>
    </g>
  </g>
  <g>
    <path fill="#F5B3C4" d="M944.207 150.617s6.646-3.259 7.954-4.444c1.198-1.186-1.744-6.716-1.744-6.716l.763-.395s-3.051-5.828-5.121-7.21c0 0-1.416-5.531-1.961-8.198-.545-2.667-2.942-5.333-4.467-5.333-1.526 0-3.487.79-4.141 2.37-.653 1.58-.326 8.889-.326 8.889l-.872.395h-.109c-3.051 1.284-5.557 3.457-7.191 6.124l-1.416 2.37.653.395c-.653.988-1.089 1.877-1.089 2.765-.109 2.47 3.922 6.42 5.447 7.803.109.296.218.494.218.592 0 .099.109.099.109.099l.109.099c-.218 1.086-.327 2.272-.327 3.654 0 5.63.654 20.247.545 21.432-.109 1.186.872 10.173.872 10.865h.763v3.654s-1.417 1.086-2.289 1.284c-.871.099-2.288.592-2.288 1.481h8.499c0-.592-.545-1.975-1.634-2.666l.544-3.655h.763s-.327-9.679-.218-11.753c.218-2.074.763-12.345 1.417-12.345.653 0 1.852 12.938 1.852 12.938l2.724 11.16h.544l.872 3.655s-1.416 1.086-2.288 1.284c-.872.098-2.288.592-2.288 1.481h8.499c0-.592-.654-1.975-1.853-2.667 0 0 0 .099-.109.099l.109-.099-.327-3.654h.654s-1.525-11.358-1.634-12.642c-.109-1.284.545-14.42.327-17.876-.109-1.383-.545-2.963-.981-4.445l.436-.79zm-15.472-9.284c0-.395.109-.79.436-1.185l1.308.691.762-1.679 2.07 1.976-.217 4.345s-.872.988-1.526 3.062c0 0-2.833-5.333-2.833-7.21zm14.709 8s-.109-.296-.436-.494a195.932 195.932 0 00-.762-1.876l2.833-6.716 1.307 1.284.654-.395s2.724 3.259 2.07 4.049c-.654.79-5.666 4.148-5.666 4.148z"></path>
    <path fill="#F5B3C4" d="M929.716 158.617c-.109-1.086-.981-1.778-.981-1.778-6.101-9.382-5.448-12.642-6.101-16.098-.654-3.457-.327-6.914-1.417-8.889-1.089-1.976-2.942-3.161-4.031-3.852-1.634-1.087-3.051-1.58-3.051-1.58h-.218c1.635-.396 2.942-2.173 2.942-4.247 0-.297 0-.593-.109-.889 0-1.284-1.198-3.457-3.487-3.457-1.961 0-3.159.988-3.595 1.975-.327.988 0 3.062 0 3.062.218 1.481 1.09 2.667 2.179 3.259 0 0-1.416.593-1.961.889-.545.296-5.448 2.469-7.082 5.136-1.199 1.383-2.288 3.555-2.942 7.605-1.307 7.506 1.852 18.37 1.961 18.667-.109.493 0 2.962.327 2.962.218 0 .436-.296.436-.296.109.297-.109.79.218.692.327 0 .98-.692 1.089-1.778.109-1.087-.218-1.877-.218-1.877-.217-6.518 2.724-3.654 2.724-3.654l-.218.494c-.326 3.852-.653 9.975-.435 13.629.108 1.482 0 3.161-.654 4.544-.872 2.074-.654 6.716-.654 16.296l-.545 2.765h8.826c-.981-2.271-3.923-2.765-5.993-2.864h.218c.981-5.926 3.16-12.148 4.576-15.21.654-1.284 1.09-2.765 1.199-4.148l.653-6.42c.327 1.581.654 3.062.981 4.247.436 1.581.218 3.457-.109 5.037-.654 2.963-1.416 7.506 0 16.593l-.545 2.765h8.826c-.763-1.777-2.724-2.469-4.468-2.666l-.108-.395c.435.197 1.307.592 1.198.592.109 0-.872-.395-1.198-.592l-.981-4.149c.436-4.543 1.525-9.086 2.397-11.555.545-1.383.654-2.864.545-4.346l.109-14.123.109-.79s-.872-1.778-.327-5.136c3.377 4.642 7.3 8.296 7.3 8.296 0 .593.762 2.864.98 2.766.218-.099.327-.297.327-.297.218.297.109.79.436.692.545.098 1.09-.692.872-1.877z"></path>
    <path fill="#563E31" d="M894.632 146.963l10.024-1.482s2.288 2.667 2.288 8.297c0 5.629-.654 20.247-.545 21.432.109 1.185-.871 10.173-.871 10.864h-4.249s.326-9.679.217-11.753c-.217-2.074-.762-12.346-1.416-12.346-.654 0-1.852 12.938-1.852 12.938l-2.724 11.161h-3.922s1.525-11.358 1.634-12.642c.109-1.284-.545-14.42-.327-17.877.436-3.456 1.743-8.592 1.743-8.592z"></path>
    <path fill="#fff" d="M893.761 148.938s.435-.592 1.307-.592c.872 0 1.743.296 1.852.691.109.395-.109.79-.544.79-.327 0-1.526-.099-1.962.494-.544.592-.653.691-.762.691-.109 0-.436-.494-.436-.494l.545-1.58z"></path>
    <path fill="#fff" d="M894.415 149.333s-5.012-3.358-5.666-4.049c-.654-.79 2.07-4.05 2.07-4.05l-3.378-1.777s-2.941 5.531-1.743 6.716c1.199 1.185 7.954 4.444 7.954 4.444l.763-1.284zM892.235 186.074l-.327 3.654 1.09.889 1.09-.889.871-3.654h-2.724z"></path>
    <path fill="#C1892B" d="M898.664 192.395c-.109-.889-1.417-1.284-2.288-1.482-.872-.098-2.288-1.284-2.288-1.284-1.526.692-2.07 0-2.07 0-1.09.692-1.853 2.074-1.853 2.667h8.499v.099z"></path>
    <path fill="#fff" d="M902.586 189.728l-.545-3.654h2.724v4.148l-.545.889-1.525-.494-.109-.889z"></path>
    <path fill="#C1892B" d="M909.45 192.395c-.109-.889-1.416-1.284-2.288-1.482-.871-.098-2.288-1.284-2.288-1.284-1.525.692-2.179 0-2.179 0-1.089.692-1.634 2.074-1.634 2.667h8.389v.099z"></path>
    <path fill="#fff" d="M906.944 133.827s5.448 4.741 5.557 7.802c.109 3.062-5.993 8.297-5.993 8.297l-.326-1.284s2.941-5.235 2.941-7.21c0-2.37-5.556-4.444-5.556-4.444v-3.655l3.377.494zM895.504 128.395s.872 2.765 3.051 2.765c2.506 0 2.506-3.852 2.397-4.938-.218-1.086-1.526-2.864-3.16-1.778-1.634 1.185-2.288 3.951-2.288 3.951z"></path>
    <path fill="#fff" d="M896.594 124.642s.871 2.765 3.05 2.765c2.506 0 2.506-3.852 2.397-4.938-.218-1.086-1.525-2.864-3.159-1.778-1.635 1.087-2.288 3.951-2.288 3.951z"></path>
    <path fill="#563E31" d="M900.189 120.395s-1.743 3.457-3.269 5.037c0 0 .327.691.763 1.086l-.218 2.963s-2.615 2.173-5.557 2.371c0 0 1.417-5.531 1.962-8.198.544-2.667 2.941-5.333 4.467-5.333 1.525 0 3.486.79 4.14 2.37.654 1.58.327 8.889.327 8.889s-.654.296-2.07-.593l-.327-1.679s1.09-.395 1.416-1.382c.327-.988.545-2.173.327-3.457-.544-1.58-1.961-2.074-1.961-2.074z"></path>
    <path fill="#fff" d="M906.182 148.543s-.654-1.086-1.417-.296-.436.889-.109 1.382c.327.494 1.634-.79 1.852.198.218 1.086.763-1.284.763-1.284h-1.089z"></path>
    <path fill="#E94F2D" d="M907.271 140.839l4.794-2.37-1.416-2.37c-1.635-2.667-4.14-4.84-7.191-6.124h-.109l-.872-.395-2.07-.592c-.763 1.382-3.16.493-3.16.493s-3.486 1.087-5.556 2.371c-2.071 1.284-5.121 7.21-5.121 7.21l4.794 2.567 1.307-1.283 1.852 6.715a2452.41 2452.41 0 0010.678-.592l-.654-4.148a2.057 2.057 0 01.654-1.877l1.199-1.185.871 1.58z"></path>
    <path fill="#fff" d="M926.447 127.21s-7.627.592-10.133 7.605l-1.525 6.814h4.576l-.545 11.951h15.908l-.545-11.951h4.358s.436-3.16-1.416-6.814c-3.705-6.914-6.538-7.408-10.678-7.605z"></path>
    <path fill="#563E31" d="M924.486 125.037s1.416 3.062 3.922 2.864c2.506-.197 2.18-5.037 1.744-6.222-.436-1.185-2.288-2.963-3.923-1.482-1.525 1.482-1.743 4.84-1.743 4.84z"></path>
    <path fill="#C1892B" d="M924.486 125.037s.872-1.679 1.199-3.161c0 0 3.268.791 4.576.099 1.307-.592 1.089-1.383.653-1.679-.435-.296-2.07-.296-2.397-.494 0 0 .545-.691-.218-.987-.762-.297-3.268.79-3.922 1.58-.654.79-1.089 1.58-.872 2.667.436 1.284.981 1.975.981 1.975z"></path>
    <path fill="#fff" d="M917.622 187.259s-.327 3.556-.327 3.852c0 .296 2.724-.296 2.724-.296l.109-3.26-2.506-.296zM928.299 187.555l-.108 3.556 2.614-1.383.218-2.173h-2.724z"></path>
    <path fill="#563E31" d="M924.704 192.395c-.109-.889-1.417-1.284-2.288-1.482-.872-.098-2.288-1.284-2.288-1.284-1.526.692-2.615 0-2.615 0-1.09.692-1.308 2.074-1.308 2.667h8.499v.099zM935.49 192.395c-.109-.889-1.416-1.284-2.288-1.482-.871-.098-2.288-1.284-2.288-1.284-1.525.692-2.615 0-2.615 0-1.089.692-1.307 2.074-1.307 2.667h8.498v.099z"></path>
    <path fill="#E94F2D" d="M933.965 171.062l-.545-17.482h-13.619c-.327 3.753-1.743 13.63-1.416 17.284a9.43 9.43 0 01-.654 4.247c-.763 1.778-.654 5.531-.545 12.938h3.596c.653-4.839.762-9.383 1.961-11.852.545-1.086.871-2.172 1.089-3.259.218-1.086.545-2.173.763-3.259l1.961-6.716s1.744 5.728 1.961 6.913c.436 1.581.218 3.358-.109 4.939-.544 2.568-1.307 6.321-.544 13.135h3.704c.218-4.938.981-9.975 1.961-12.642.327-1.283.545-2.765.436-4.246z"></path>
    <g>
      <path fill="#563E31" d="M915.661 141.629h4.358l-.545 3.358s10.46-4.049 12.312-3.061c1.852.987 2.397 2.864 2.397 2.864s-1.961-.198-3.704-.593c-1.744-.395-2.18.297-2.18.297s-7.626 5.135-9.479 5.135c-1.634 0-4.903-.987-3.159-8z"></path>
      <path fill="#563E31" d="M934.074 141.629h3.595s.436 4.445-.326 5.926c-.872 1.482-6.973 1.186-10.46-2.172-3.378-3.359 2.179-1.877 2.179-1.877s1.09-.691 5.23 1.284l-.218-3.161z"></path>
    </g>
    <path fill="#563E31" d="M922.634 144.296s-1.308-1.975-3.487-.889c-2.179 1.087-.654 2.766-.654 2.766l3.051-.593 1.09-1.284z"></path>
    <g>
      <path fill="#563E31" d="M957.936 189.728s-5.666-.197-5.666 2.667h12.748s-.436-2.074-1.09-2.667h-5.992zM941.483 189.728s-5.665-.197-5.665 2.667h12.747s-.436-2.074-1.089-2.667h-5.993z"></path>
      <path fill="#E94F2D" d="M969.049 134.222c-1.852-2.272-4.14-4.247-6.646-5.235-1.962-.691-4.25-1.185-6.32-1.185-2.179 0-4.358.395-6.319 1.185-2.179.791-4.794 2.075-5.775 4.05-1.307 2.667-.98 5.136-1.307 7.901-.327 2.667-.545 5.235-.436 7.901 0 .593.872 7.112.872 7.112l3.05-.988 1.417-3.062c0 .099.109.296.109.296h13.946s1.525-5.629 1.852-7.407c.218-1.383.436-2.963.545-4.148l1.09-1.284c.762.79 1.634 1.876 2.288 3.358 1.852 3.951-.763 6.42-.763 6.42l3.051 1.975c4.576-2.667 4.903-7.21 2.941-11.457-1.089-1.876-2.179-3.753-3.595-5.432z"></path>
      <path fill="#fff" d="M959.025 124.839s-1.198 3.062-3.704 3.062c-2.506 0-2.397-4.839-2.18-6.025.218-1.185 2.071-3.061 3.705-1.679 1.743 1.383 2.179 4.642 2.179 4.642z"></path>
      <path fill="#563E31" d="M959.025 124.839s-.654-.888-1.09-2.469c0 0-3.486.297-4.794-.296-1.307-.593-1.198-1.284-.762-1.679.435-.296 1.852-1.284 3.159-1.383 1.308-.098 2.833.494 3.596 1.185.654.791.872 1.482.654 2.568-.218 1.383-.763 2.074-.763 2.074z"></path>
      <path fill="#E94F2D" d="M961.204 123.062c1.307-2.37.218-5.135-2.397-6.321-2.615-1.185-5.666-.197-6.973 2.173l9.37 4.148zM961.422 123.555c-.109.198-.327.297-.545.198l-3.922-1.778s-1.961-.395-3.269-.988c-1.307-.592-2.506-1.284-2.942-1.58-.218-.099-.218-.296-.109-.494.109-.197.327-.296.654-.197l10.024 4.444c.109 0 .218.198.109.395z"></path>
      <path fill="#E94F2D" d="M958.153 116.444c-.109.297 0 .593.327.79.327.099.654 0 .872-.296.109-.296 0-.593-.327-.79a.767.767 0 00-.872.296z"></path>
      <path fill="#563E31" d="M958.589 119.506c-.218-.099-.436-.395-.218-.691l.981-1.778c.327.197.653.395.871.592l-.871 1.581c-.109.296-.436.395-.763.296zM956.519 118.519c-.218-.099-.436-.395-.218-.691l.872-1.581c.326 0 .762.099 1.089.198l-.981 1.778c-.217.395-.544.494-.762.296z"></path>
      <g>
        <path fill="#563E31" d="M947.476 152.593v.493c0 .297.109.494.218.692l2.397 3.16c.327.395.218.889-.218 1.284-.218.099-.436.198-.654.198-.327 0-.545-.099-.762-.297l-.654-.592.109 2.864c0 .494-.436.988-.981 1.086-.218 0-.327 0-.436-.098-.109.493-.544.79-1.089.79h-.109c-.545 0-1.09-.395-1.09-.889-.109.099-.327.099-.436.099-.544 0-.98-.494-1.089-.988v-.099c-.654 0-1.199-.494-1.199-1.086v-1.087l-.109-1.975c0-.593.109-1.086.327-1.679.109-.494.218-.988.218-1.481v-.198l5.557-.197z"></path>
        <path fill="#fff" d="M942.028 152.691l-.327-1.876h.545l5.447-.099-.218 1.778v.098l-5.447.099z"></path>
      </g>
      <path fill="#C1892B" d="M961.531 152.099h-13.946s-2.724 7.901-3.378 14.024l-.654 1.087c-.544.889-.653 1.778-.436 2.765l.436 1.679c-.653.494-1.089 1.284-1.089 2.074l-.981 16.099h6.102l2.179-15.605s.98-10.074 3.159-10.074c2.18 0 2.615 8.296 2.942 9.975.218 1.679 1.635 3.852 1.635 3.852l-.109.296c-.327.692-.109 1.383.435 1.877l.218.198-.109 9.382h6.102s-.109-14.222-.981-18.173c0-.197-.109-.493-.109-.691-.653-2.864-.871-5.728-.653-8.691 0-1.976-.109-5.136-.763-10.074z"></path>
      <g>
        <path fill="#563E31" d="M965.344 149.234l-.218.198-.109.197c-.217.198-.435.297-.653.395l-4.032 1.186c-.544.098-.762.592-.762 1.086 0 .198.109.395.327.494.217.197.544.197.762.197l.872-.098-1.961 2.173a.984.984 0 00.109 1.382c.109.099.218.198.435.198-.217.395-.108.889.218 1.185h.109c.436.296 1.09.296 1.526-.099l.327.296c.435.297 1.089.198 1.525-.197l.109-.099a1.314 1.314 0 001.743-.197l.763-.889 1.416-1.58c.436-.396.654-.988.872-1.482.218-.494.436-.889.872-1.284l.109-.099-4.359-2.963z"></path>
        <path fill="#fff" d="M969.594 152.395l1.525-1.284-.545-.296-4.14-3.161-1.09 1.482v.098l4.25 3.161z"></path>
      </g>
    </g>
  </g>
  <path fill="#563E31" d="M1140 192.395H0V200h1140v-7.605z"></path>
  <g>
    <path fill="#E94F2D" d="M384.503 134.42c-.871-1.877-2.397-2.865-3.704-3.852-.218-.198-.327-.198-.327-.198-.872-.592-1.852-1.185-2.833-1.481-1.961-.692-4.249-1.185-6.319-1.185-2.179 0-4.358.395-6.32 1.185-2.179.79-4.794 2.074-5.774 4.049-1.308 2.667-.981 5.136-1.308 7.901-.326 2.667-.544 5.235-.435 7.902 0 .592.871 7.111.871 7.111l3.051-.988 1.416-3.062c0 .099.109.297.109.297h13.947s1.525-5.63 1.852-7.408c.109-.889.654-1.876.98-3.062v-.098c1.962 6.321 2.071 16 2.071 16h3.922s.654-.889.654-12.05c-.109-5.037-.981-9.185-1.853-11.061z"></path>
    <path fill="#563E31" d="M373.172 189.728s-5.666-.197-5.666 2.667h12.857s-.436-2.074-1.089-2.667h-6.102zM356.72 189.728s-5.666-.197-5.666 2.667h12.857s-.436-2.074-1.09-2.667h-6.101z"></path>
    <path fill="#fff" d="M374.262 124.741s-1.199 3.061-3.705 3.061c-2.506 0-2.506-4.839-2.179-6.024.327-1.185 2.07-3.062 3.705-1.679 1.743 1.382 2.179 4.642 2.179 4.642z"></path>
    <path fill="#C1892B" d="M374.262 124.741s-.654-.889-1.09-2.47c0 0-3.487.297-4.794-.296-1.307-.592-1.198-1.284-.763-1.679.436-.296 1.853-1.284 3.16-1.383 1.307-.098 2.833.494 3.596 1.186.653.79.871 1.481.653 2.568-.218 1.284-.762 2.074-.762 2.074z"></path>
    <path fill="#E94F2D" d="M376.441 122.964c1.307-2.37.218-5.234-2.397-6.321-2.615-1.086-5.775-.197-6.973 2.173l9.37 4.148zM376.659 123.457c-.109.197-.327.296-.545.197l-3.923-1.778s-1.961-.395-3.268-.987c-1.308-.593-2.506-1.284-2.942-1.581-.218-.098-.218-.296-.109-.493.109-.198.327-.297.654-.198l10.024 4.445c.109 0 .218.197.109.395z"></path>
    <path fill="#E94F2D" d="M373.499 116.346c-.109.296 0 .592.327.79.327.098.654 0 .871-.297.109-.296 0-.592-.326-.79-.327-.197-.763 0-.872.297z"></path>
    <path fill="#563E31" d="M373.935 119.407c-.218-.099-.436-.395-.218-.691l.98-1.778c.327.198.654.395.872.593l-.872 1.58c-.217.296-.544.395-.762.296zM371.756 118.421c-.218-.099-.436-.395-.218-.692l.871-1.58c.327 0 .763.099 1.09.198l-.981 1.777c-.109.297-.435.395-.762.297zM381.017 153.876v.494c0 .296-.109.494-.218.692l-2.397 3.16c-.327.395-.218.889.109 1.284.218.099.436.198.654.198.327 0 .544-.099.762-.297l.654-.592-.109 2.864c0 .494.436.988.981 1.086.218 0 .327 0 .436-.098.108.493.544.79.98.79h.109c.545 0 1.09-.395 1.09-.889.109.099.327.099.435.099.545 0 .981-.494 1.09-.988v-.099c.654 0 1.199-.494 1.199-1.086v-1.087l.109-1.975c0-.593-.109-1.087-.218-1.679-.109-.494-.218-.988-.218-1.482v-.197l-5.448-.198z"></path>
    <path fill="#fff" d="M386.574 153.975l.326-1.778-.544-.098-5.448-.099.109 1.778v.098l5.557.099z"></path>
    <path fill="#E94F2D" d="M384.286 134.222c-1.853-2.271-4.141-4.247-6.647-5.234-1.961-.692-4.249-1.186-6.319-1.186-2.179 0-4.358.395-6.32 1.186-2.179.79-4.794 2.074-5.774 4.049-1.308 2.667-.981 5.136-1.308 7.901-.326 2.667-.544 5.235-.435 7.901 0 .593.871 7.112.871 7.112l3.051-.988 1.416-3.062c0 .099.109.296.109.296h13.947s1.525-5.629 1.852-7.407c.218-1.383.436-2.963.545-4.148l1.089-1.284c.654.79 5.339-3.358 3.923-5.136z"></path>
    <g>
      <path fill="#563E31" d="M362.821 152.691v.494c0 .296.109.494.218.691l2.397 3.161c.327.395.218.889-.218 1.284-.218.099-.436.197-.653.197-.327 0-.545-.098-.763-.296l-.654-.593.109 2.865c0 .494-.436.987-.981 1.086-.217 0-.326 0-.435-.099-.109.494-.545.79-1.09.79h-.109c-.545 0-1.089-.395-1.089-.888-.109.098-.327.098-.436.098-.545 0-.981-.493-1.09-.987v-.099c-.654 0-1.198-.494-1.198-1.087v-1.086l-.109-1.975c0-.593.109-1.087.327-1.679.109-.494.218-.988.218-1.482v-.197l5.556-.198z"></path>
      <path fill="#fff" d="M357.265 152.691l-.327-1.778h.545l5.448-.098-.109 1.778v.098l-5.557.099v-.099z"></path>
    </g>
    <path fill="#C1892B" d="M376.768 152.099h-13.947s-2.724 7.901-3.377 14.024l-.654 1.087c-.545.889-.654 1.778-.436 2.765l.436 1.679c-.654.494-1.09 1.284-1.09 2.074l-.98 16.099h5.883l2.288-15.605s.981-10.173 3.16-10.173c2.288 0 2.615 8.297 2.942 9.976.327 1.777 1.634 3.852 1.634 3.852l-.109.296c-.327.691-.109 1.383.436 1.876l.218.198v9.481h6.101s-.217-14.222-1.089-18.172c0-.198-.109-.494-.109-.692a29.281 29.281 0 01-.654-8.691c.109-2.074.109-5.235-.653-10.074z"></path>
    <path stroke="#563E31" stroke-miterlimit="10" stroke-width=".959" d="M387.881 162.074v-2.963h-9.043v3.457"></path>
    <path fill="#563E31" d="M370.339 161.481h25.932v1.284h1.307v8.099h-28.437v-8.099h1.198v-1.284z"></path>
    <path fill="#fff" d="M369.104 167.145h28.437v-1.284h-28.437v1.284z"></path>
  </g>
  <g>
    <path fill="#E94F2D" d="M635.21 134.42c.871-1.877 2.397-2.865 3.704-3.852.218-.198.327-.198.327-.198.872-.592 1.852-1.185 2.833-1.481 1.961-.692 4.249-1.185 6.319-1.185 2.179 0 4.359.395 6.32 1.185 2.179.79 4.794 2.074 5.774 4.049 1.308 2.667.981 5.136 1.308 7.901.327 2.667.545 5.235.436 7.902 0 .592-.872 7.111-.872 7.111l-3.051-.988-1.416-3.062c0 .099-.109.297-.109.297h-13.946s-1.526-5.63-1.853-7.408c-.109-.889-.653-1.876-.98-3.061v-.099c-1.961 6.321-2.07 16-2.07 16h-3.923s-.653-.889-.653-12.05c0-5.037.98-9.185 1.852-11.061z"></path>
    <path fill="#563E31" d="M646.541 189.728s5.666-.197 5.666 2.667H639.35s.436-2.074 1.09-2.667h6.101zM662.993 189.728s5.666-.197 5.666 2.667h-12.857s.436-2.074 1.09-2.667h6.101z"></path>
    <path fill="#fff" d="M645.452 124.741s1.198 3.061 3.704 3.061c2.506 0 2.506-4.839 2.179-6.024-.327-1.185-2.07-3.062-3.704-1.679-1.852 1.382-2.179 4.642-2.179 4.642z"></path>
    <path fill="#563E31" d="M645.452 124.741s.653-.889 1.089-2.469c0 0 3.487.296 4.794-.297 1.308-.592 1.199-1.284.763-1.679-.436-.395-1.852-1.284-3.16-1.382-1.307-.099-2.833.493-3.595 1.185-.654.79-.872 1.481-.654 2.568.109 1.284.763 2.074.763 2.074z"></path>
    <path fill="#E94F2D" d="M643.164 122.964c-1.308-2.371-.218-5.235 2.397-6.321 2.614-1.087 5.774-.198 6.973 2.173l-9.37 4.148zM642.946 123.457c.109.197.326.296.544.197l3.923-1.778s1.961-.395 3.268-.987c1.308-.593 2.506-1.284 2.942-1.581.218-.098.218-.296.109-.493-.109-.198-.327-.297-.654-.198l-10.023 4.445c-.109 0-.109.197-.109.395z"></path>
    <path fill="#E94F2D" d="M646.214 116.346c.109.296 0 .592-.327.79a.765.765 0 01-.871-.297c-.109-.296 0-.592.327-.79a.766.766 0 01.871.297z"></path>
    <path fill="#563E31" d="M645.778 119.407c.218-.098.436-.395.218-.691l-.98-1.778c-.327.198-.654.395-.872.593l.872 1.58c.109.296.436.395.762.296zM647.958 118.421c.217-.099.435-.396.217-.692l-.871-1.58c-.327 0-.763.099-1.09.197l.981 1.778c.109.297.436.395.763.297zM638.696 153.876v.494c0 .296.109.494.218.692l2.397 3.16c.327.395.218.889-.109 1.284-.218.099-.435.198-.653.198-.327 0-.545-.099-.763-.297l-.654-.592.109 2.864c0 .494-.436.988-.98 1.086-.218 0-.327 0-.436-.098-.109.493-.545.79-.981.79h-.109c-.545 0-1.089-.395-1.089-.889-.109.099-.327.099-.436.099-.545 0-.981-.494-1.09-.988v-.099c-.654 0-1.198-.494-1.198-1.086v-1.087l-.109-1.975c0-.593.109-1.087.218-1.679.109-.494.218-.988.218-1.482v-.197l5.447-.198z"></path>
    <path fill="#fff" d="M633.14 153.975l-.327-1.778.545-.098 5.447-.099-.218 1.778.109.098-5.556.099z"></path>
    <path fill="#E94F2D" d="M635.319 134.222c1.852-2.271 4.14-4.247 6.646-5.234 1.961-.692 4.249-1.186 6.319-1.186 2.18 0 4.359.395 6.32 1.186 2.179.79 4.794 2.074 5.774 4.049 1.308 2.667.981 5.136 1.308 7.901.327 2.667.545 5.235.436 7.901 0 .593-.872 7.112-.872 7.112l-3.051-.988-1.416-3.062c0 .099-.109.296-.109.296h-13.946s-1.526-5.629-1.853-7.407c-.217-1.383-.435-2.963-.544-4.148l-1.09-1.284c-.545.79-5.339-3.358-3.922-5.136z"></path>
    <g>
      <path fill="#563E31" d="M656.892 152.691v.494c0 .296-.109.494-.218.691l-2.397 3.161c-.327.395-.218.889.218 1.284.218.099.436.197.654.197.326 0 .544-.098.762-.296l.654-.592-.109 2.864c0 .494.436.987.981 1.086.218 0 .327 0 .435-.099.109.494.545.79 1.09.79h.109c.545 0 1.09-.395 1.09-.888.109.098.326.098.435.098.545 0 .981-.493 1.09-.987v-.099c.654 0 1.198-.494 1.198-1.086v-1.087l.109-1.975c0-.593-.109-1.087-.326-1.679-.109-.494-.218-.988-.218-1.482v-.197l-5.557-.198z"></path>
      <path fill="#fff" d="M662.449 152.691l.326-1.778h-.653l-5.448-.098.218 1.778v.098l5.557.099v-.099z"></path>
    </g>
    <path fill="#C1892B" d="M642.837 152.099h13.946s2.724 7.901 3.377 14.024l.654 1.087c.545.889.654 1.778.436 2.765l-.436 1.679c.654.494 1.09 1.284 1.09 2.074l.98 16.099h-5.883l-2.288-15.605s-.981-10.173-3.16-10.173c-2.179 0-2.615 8.297-2.942 9.976-.327 1.777-1.634 3.852-1.634 3.852l.109.296c.327.691.109 1.383-.436 1.876l-.218.198v9.481h-6.101s.217-14.222 1.089-18.172c0-.198.109-.494.109-.692.654-2.864.872-5.827.654-8.691-.109-2.074 0-5.235.654-10.074z"></path>
    <path fill="#563E31" d="M649.265 162.765v-1.284h-25.931v1.284h-1.199v8.099h28.437v-8.099h-1.307z"></path>
    <path stroke="#563E31" stroke-miterlimit="10" stroke-width=".959" d="M631.832 162.074v-2.963h9.043v3.457"></path>
    <path fill="#fff" d="M650.572 165.926h-28.437v1.284h28.437v-1.284z"></path>
  </g>
  <g>
    <path fill="#563E31" d="M875.674 140.642c-.653-3.951-1.743-6.124-2.941-7.506-1.635-2.667-6.429-4.84-6.974-5.037-.544-.297-3.05-.889-3.05-.889a29.7 29.7 0 00-.981.098s-1.198.198-1.307.198c0 0-1.417.494-2.942 1.58-1.09.593-2.833 1.877-3.923 3.753-1.089 1.877-1.852 5.334-2.506 8.692-.217.889-.217 1.876-.326 2.864-.327 2.765.544 5.234-3.814 11.852l1.308 1.284s3.268-3.161 6.646-7.704c.109-.099.109-.198.218-.296L855.3 152h13.619s-.218-1.482.763-6.914c.109.296.218.593.218.889.762 2.963 1.416 6.519 1.198 12.444l1.853.494s3.159-7.111 3.268-13.827c-.218-1.481-.327-2.963-.545-4.444z"></path>
    <path fill="#E94F2D" d="M855.082 152.099l-.545 17.481c-.109 1.482.109 2.864.545 4.247 1.089 3.259 2.723 9.975 2.506 15.704a12.546 12.546 0 012.614.099c1.417-8.889.654-13.334 0-16.297-.326-1.58-.435-3.358-.108-4.938.326-1.185 1.961-6.914 1.961-6.914l1.961 6.717c.327 1.086.654 2.172.763 3.259.218 1.086.544 2.271 1.089 3.259 1.417 2.963 1.743 9.086 2.615 15.012a10.575 10.575 0 012.397.099v.198c0-9.581.654-14.223-.218-16.297a9.427 9.427 0 01-.654-4.247c.218-3.555-1.089-13.432-1.416-17.283h-13.51v-.099z"></path>
    <path fill="#fff" d="M870.88 158.518s-.763 1.186-.98 1.778c-.218.692-.218 1.087 0 1.185.326.099.326-.987.544-.889.327.099.327.494 0 1.581-.109.494.654.889 1.199.494.545-.396 1.198-2.272.871-3.655l-1.634-.494z"></path>
    <path fill="#563E31" d="M861.51 176.691h-5.992l1.307 12.84s-1.307 1.185-2.288 1.382c-.872.198-2.506.593-2.506 1.581h9.37c0-.395-.109-1.284-.436-1.976l.545-13.827zM871.97 176.691h-5.993l1.308 12.84s-1.308 1.185-2.288 1.382c-.872.198-2.506.593-2.506 1.581h9.37c0-.395-.109-1.284-.436-1.976l.545-13.827z"></path>
    <path fill="#fff" d="M846.801 156.346s-1.307.592-1.852 1.086c-.545.494-.872.889-.654 1.086.218.297.763-.691.981-.493.218.197 0 .592-.872 1.382-.327.395.109 1.087.763.988.762-.099 2.288-1.482 2.833-2.765l-1.199-1.284z"></path>
    <path stroke="#563E31" stroke-linecap="round" stroke-linejoin="bevel" stroke-miterlimit="10" d="M846.147 127.21l1.635 9.481c.218 1.482-.763 2.864-2.179 3.062l-6.211.889c-1.416.197-2.833-.889-3.051-2.371l-1.634-9.481M842.443 140.148L840.373 128M850.941 192.197l-8.498-52.247"></path>
    <g>
      <path fill="#fff" d="M864.779 124.346s-.872 3.16-3.378 3.358c-2.506.197-2.942-4.544-2.724-5.828.218-1.185 1.743-3.16 3.487-1.975 1.852 1.284 2.615 4.445 2.615 4.445z"></path>
      <path fill="#563E31" d="M864.779 124.346s-1.09-1.482-1.744-2.963c0 0-3.05 1.185-4.358.79-1.307-.395-1.307-1.185-.98-1.581.326-.296 1.961-.592 2.288-.888 0 0-.654-.593 0-.988.653-.296 3.268.296 4.031.988.763.691 1.416 1.382 1.307 2.469-.108 1.383-.544 2.173-.544 2.173z"></path>
      <path fill="#C1892B" d="M853.12 118.913c1.417-.395 3.596-.691 5.993-.493.872-1.778 2.833-2.865 4.576-2.47 1.743.395 2.942 2.074 2.833 4.05 1.852.691 3.487 1.58 5.012 3.061.109.099.109.297.109.396-.109.197-.327.296-.436.197l-9.043-2.074-9.044-1.975c-.217 0-.326-.198-.326-.395.109-.198.217-.297.326-.297z"></path>
    </g>
    <g>
      <path fill="#fff" d="M864.887 152.593c0 .296.218.494.545.494.327 0 .545-.198.545-.494v-.494h-1.09v.494zM857.37 152.593c0 .296.218.494.544.494.327 0 .545-.198.545-.494v-.494h-1.089v.494zM865.759 128.099c-.109-.099-.545-.198-.872-.297v24.297h1.09v-23.902c-.109 0-.109-.098-.218-.098z"></path>
      <path fill="#fff" d="M857.479 129.086v23.013h1.089v-23.704c-.436.198-.762.395-1.089.691z"></path>
    </g>
  </g>
  <g>
    <path fill="#fff" d="M1062.75 133.926c-2.18 0-4.25.691-5.88 1.876-4.25-7.901-13.19-13.234-23.54-13.234-14.49 0-26.15 10.667-26.15 23.704 0 4.345 1.31 8.395 3.6 11.95-2.4.494-4.47 1.58-5.99 3.259-3.71 4.445-1.75 11.457 4.46 15.704 6.1 4.148 14.17 3.951 17.87-.592l.66-.889c1.19.79 2.72 1.185 4.35 1.185 3.38 0 6.21-1.975 7.3-4.741 1.31.494 2.62.79 4.14.79 5.56 0 10.03-4.049 10.03-9.086 0-.692-.11-1.482-.33-2.173 3.05-3.161 5.12-7.012 5.99-11.358 1.09.395 2.29.593 3.6.593 5.23 0 9.48-3.852 9.48-8.593-.11-4.543-4.36-8.395-9.59-8.395z"></path>
    <path stroke="#EDEDED" stroke-miterlimit="10" stroke-width="2" d="M1030.28 137.185c5.67 21.432 7.41 39.012 7.85 55.012M1033.44 150.024l7.08-12.839M1036.27 164.049L1046.63 152"></path>
    <path fill="#F5B3C4" d="M1091.51 162.173c0-9.877-8.82-17.877-19.72-17.877-10.89 0-19.72 8-19.72 17.877V192.395h37.92v-23.704a14.806 14.806 0 001.52-6.518z"></path>
    <path fill="#fff" d="M1130.63 84.84c-.44-5.038-4.25-8.988-9.26-10.37-.98-5.532-6.43-9.482-12.64-9.087-6.54.493-11.11 4.543-11.11 12.05.11 7.505-1.42 13.826-6 19.752-2.18 2.864-3.37 6.42-3.05 10.173.22 2.37.98 4.642 2.29 6.617-6.32 2.766-10.35 8.79-9.81 15.506.44 5.235 3.71 9.679 8.39 12.247 0 .692-.1 1.482 0 2.173.77 8.988 10.03 15.506 20.05 13.827 7.41-1.284 13.08-7.111 13.51-13.926.22-2.469-.32-4.839-1.2-6.913-1.41-2.963-.43-6.321 2.18-8.593 3.16-2.765 5.02-6.815 4.69-11.061-.33-3.754-2.29-7.112-5.23-9.383.11-.889.11-1.877 0-2.864-.11-1.284-.33-2.47-.76-3.655-.77-2.074 0-4.543 2.07-5.728 3.81-2.272 6.21-6.321 5.88-10.766z"></path>
    <path stroke="#EDEDED" stroke-miterlimit="10" stroke-width="2" d="M1108.18 104.099c-5.77 22.024-7.73 43.555-8.06 59.95M1104.37 122.667l12.2-10.074M1101.87 141.234l12.2-10.074M1102.74 133.037l-6.21-13.333"></path>
    <path fill="#FFE054" d="M1127.69 173.728h-1.96c-1.64 0-3.05.494-4.25 1.186v-1.679c0-4.247-3.82-7.704-8.5-7.704-4.69 0-8.5 3.457-8.5 7.704v.395h-.22c-4.14 0-7.52 3.061-7.52 6.814v11.852h38.47v-11.852c0-3.654-3.38-6.716-7.52-6.716z"></path>
    <path fill="#fff" d="M1092.5 178.074c-5.56 0-10.46 2.568-13.19 6.518-1.41-.79-3.16-1.185-5.01-1.185-5.45 0-9.92 4.05-9.92 8.988h43.91c-.11-7.901-7.08-14.321-15.79-14.321z"></path>
    <path stroke="#563E31" stroke-miterlimit="10" stroke-width="2" d="M1089.99 192.592v-16.098"></path>
    <path fill="#563E31" d="M1112.43 176.593l-9.58-15.408 4.46-.296-7.19-10.074 4.58-.297-9.59-11.358 4.14-.296-9.26-14.518-.11.395v-.494l-9.26 14.518 4.14.297-9.59 11.358 4.58.296-7.19 10.074 4.46.296-9.58 15.408 7.84-.099v.099l37.15.099z"></path>
    <path stroke="#C1892B" stroke-miterlimit="10" stroke-width="2" d="M1012.85 124.938v67.457M997.377 137.185c0 .889.218 3.852 2.07 6.42.983 1.284 2.293 2.568 4.253 3.457 1.96.888 4.68 1.58 8.17 1.58M997.377 157.926c0 .889.218 3.852 2.07 6.419.983 1.284 2.293 2.568 4.253 3.457 1.96.889 4.68 1.58 8.17 1.58M1028.43 149.827c0 .889-.22 3.852-2.07 6.42-.98 1.284-2.29 2.568-4.25 3.457-1.96.889-4.69 1.58-8.17 1.58"></path>
    <path fill="#563E31" d="M1004.46 137.185h-19.177c-1.852 0-3.377-1.383-3.377-3.062v-.79c0-1.679 1.525-3.062 3.377-3.062h19.177c1.85 0 3.38 1.383 3.38 3.062v.79c0 1.679-1.53 3.062-3.38 3.062zM1001.95 159.901h-19.173c-1.852 0-3.377-1.383-3.377-3.062v-.79c0-1.679 1.525-3.061 3.377-3.061h19.173c1.86 0 3.38 1.382 3.38 3.061v.79c0 1.679-1.52 3.062-3.38 3.062zM1024.62 125.531h-24.08c-2.4 0-4.252-1.778-4.252-3.852v-.988c0-2.173 1.961-3.852 4.252-3.852h24.08c2.39 0 4.25 1.778 4.25 3.852v.988c0 2.173-1.86 3.852-4.25 3.852zM1040.52 151.704h-19.17c-1.85 0-3.38-1.383-3.38-3.062v-.79c0-1.679 1.53-3.062 3.38-3.062h19.17c1.86 0 3.38 1.383 3.38 3.062v.79c0 1.679-1.52 3.062-3.38 3.062z"></path>
    <path fill="#E94F2D" d="M1030.28 192.395h13.51l2.73-18.766-6.87 12.05-1.09-28.938-5.12 26.666-7.63-11.654 4.47 20.642z"></path>
    <path stroke="#EDEDED" stroke-miterlimit="10" stroke-width="2" d="M1035.95 168.099l-10.79-4.642"></path>
    <path fill="#E94F2D" d="M1089.88 124.543v51.951l22.55.099-9.58-15.408 4.46-.296-7.19-10.074 4.58-.297-9.59-11.358 4.14-.296-9.26-14.518-.11.197z"></path>
    <path fill="#563E31" d="M1118.43 112.691c0 .889-.77 1.58-1.75 1.58s-1.74-.691-1.74-1.58c0-.889.76-1.58 1.74-1.58s1.75.79 1.75 1.58zM1108.62 105.383c.96 0 1.74-.708 1.74-1.581 0-.872-.78-1.58-1.74-1.58s-1.74.708-1.74 1.58c0 .873.78 1.581 1.74 1.581zM1098.27 119.605c0 .889-.76 1.58-1.74 1.58s-1.75-.691-1.75-1.58c0-.889.77-1.58 1.75-1.58s1.74.691 1.74 1.58zM1116.14 131.062c0 .889-.76 1.58-1.74 1.58-.99 0-1.75-.691-1.75-1.58 0-.889.76-1.581 1.75-1.581.98 0 1.74.692 1.74 1.581z"></path>
    <g>
      <path fill="#fff" d="M1052.07 115.457l.33-8.198h4.03l.33 8.198"></path>
      <path fill="#C1892B" d="M1056.43 108.049h-4.03l-.33 8.198h4.69l-.33-8.198zM1051.64 133.235h5.55l-.21-8.494h-5.12l-.22 8.494zM1051.2 150.222h6.43l-.22-8.494h-5.99l-.22 8.494zM1050.66 167.111h7.51l-.21-8.395h-6.98l-.32 8.395zM1050.22 184.099h8.39l-.22-8.396h-7.95l-.22 8.396z"></path>
      <path fill="#563E31" d="M1075.17 88c-5.45-.593-11.22 1.086-15.36 5.333-4.25 4.148-5.99 9.877-5.34 15.408L1075.17 88z"></path>
      <path fill="#563E31" d="M1075.06 129.284a18.566 18.566 0 00-5.34-15.408 18.997 18.997 0 00-15.36-5.333l20.7 20.741zM1033.66 129.284a18.598 18.598 0 015.34-15.408 18.997 18.997 0 0115.36-5.333l-20.7 20.741z"></path>
      <path fill="#563E31" d="M1033.77 88c5.45-.593 11.22 1.086 15.36 5.333 4.25 4.148 5.99 9.877 5.34 15.408L1033.77 88z"></path>
      <path fill="#563E31" d="M1086.18 108.642c-3.71-4.247-9.59-7.012-16.02-7.012-6.54 0-12.31 2.765-16.02 7.012h32.04z"></path>
      <path fill="#563E31" d="M1022.65 108.642c3.71-4.247 9.59-7.012 16.02-7.012 6.54 0 12.31 2.765 16.02 7.012h-32.04z"></path>
      <path fill="#FFE054" d="M1051.85 124.741h5.13l-.22-8.494h-4.69l-.22 8.494zM1051.42 141.728h5.99l-.22-8.493h-5.55l-.22 8.493zM1050.98 158.716h6.98l-.33-8.494h-6.43l-.22 8.494zM1050.44 175.605h7.95l-.22-8.395h-7.51l-.22 8.395zM1050 192.395h8.83l-.22-8.198h-8.39l-.22 8.198z"></path>
    </g>
    <path fill="#563E31" d="M1106.77 192.395h6.1c1.2-.198 2.4-.494 3.38-.988 3.37-1.778 4.25-3.852 3.37-5.234-.76-1.284-2.83-1.679-5.55-.593.76-2.667 0-4.444-1.53-4.938-1.74-.593-3.81.592-5.12 3.852-.65 1.679-.54 3.654-.32 5.333-.22-.691-.66-1.284-1.09-1.877-1.53-1.58-3.06-1.876-3.82-1.185-.87.692-.76 1.976.76 3.655.88 1.086 2.73 1.679 3.82 1.975zM1020.58 191.605c.88.296 1.75.592 2.62.79h9.91c-.1-1.778-2.39-5.432-5.88-9.284-4.36-4.741-10.02-6.913-10.02-6.913s1.3 5.432 5.66 10.172l.66.593c-.33-.099-.55-.198-.88-.296-6.31-2.173-12.53-1.482-12.53-1.482s4.15 4.247 10.46 6.42z"></path>
  </g>
  <g>
    <path fill="#C1892B" d="M568.747 169.086H407.711v23.309h161.036v-23.309z"></path>
    <path fill="#563E31" d="M445.409 157.432v-.099l-.544-11.654v-.099l-.654-11.753-.545-11.753-.654-11.753-.544-11.753-.654-11.753h.981v-2.37H427.65v2.37h.98l-.653 11.753-.545 11.753-.654 11.753-.545 11.753-.653 11.753v.099l-.545 11.654v.099l-.654 11.753h21.682l-.654-11.753z"></path>
    <path fill="#fff" d="M465.784 41.284c-1.307-2.963-4.14-4.445-5.992-4.741-1.853-.296-3.051 0-4.032-.099-.871-.099-1.525-.592-2.288-1.383-1.525-1.58-3.704-2.567-5.992-2.765-5.23-.296-9.262 3.457-9.262 7.803v.79c-.326 1.679-1.089 2.568-1.852 2.963l-.654.296c-1.089.395-2.07 0-2.506-.296-.544-.297-1.416-1.58-3.159-2.173-1.744-.593-4.358-.395-5.775.296-1.416.79-2.179 1.087-3.378 3.95-.98 2.272-.653 4.742.654 6.816v.592c-.109.79-.654 1.383-1.525 2.074-1.743 1.383-2.833 3.358-3.051 5.432-.327 4.741 3.814 8.395 8.608 8.395h.871c1.852.297 2.833.988 3.269 1.68l.327.592c.436.988 0 1.876-.327 2.272-.327.493-1.743 1.284-2.397 2.864-.545 1.58-.436 3.95.327 5.234.871 1.284 1.198 1.976 4.358 3.062 3.269 1.185 5.012.79 7.3-.395 2.288-1.185 3.378-2.765 3.813-4.444.327-1.68.327-3.358-1.198-4.939l-.218-.197-.327-.593c-.436-.987-.109-2.074.763-2.864 2.615-2.272 3.051-4.74 2.615-6.617-.436-1.877.762-2.766 1.634-3.457 0 0 1.199-1.087 3.705-.198a9.233 9.233 0 006.101 0c3.269-1.185 4.467-3.358 4.794-4.049.327-.593.872-2.568.654-4.148-.327-1.58.762-2.37 1.634-3.062 2.833-2.173 3.814-5.63 2.506-8.691z"></path>
    <path fill="#563E31" d="M563.408 192.395h-2.179v-5.037c0-3.753 3.378-6.815 7.518-6.815v1.976c-2.942 0-5.339 2.172-5.339 4.839v5.037zM513.616 59.062h-33.341v-.593c0-8.395 7.518-15.111 16.67-15.111 9.262 0 16.671 6.815 16.671 15.111v.593z"></path>
    <path fill="#563E31" d="M499.996 42.173h-6.21v2.173h6.21v-2.173z"></path>
    <path stroke="#563E31" stroke-miterlimit="10" stroke-width="2" d="M497.054 42.864V8.1"></path>
    <path stroke="#F5B3C4" stroke-miterlimit="10" stroke-width="2" d="M492.587 13.53l-2.724-3.357M489.863 16.988l-4.467-1.284M489.754 21.136l-4.358 1.284M492.478 24.593l-2.724 3.357M501.304 24.691l2.723 3.358M504.027 21.235l4.468 1.283M504.136 17.086l4.359-1.284M501.412 13.63l2.724-3.358"></path>
    <path fill="#fff" d="M513.616 59.062h-33.341v110.024h33.341V59.061z"></path>
    <path stroke="#C1892B" stroke-miterlimit="10" stroke-width="2" d="M506.207 169.086V55.012M502.611 169.086V55.012M499.016 169.086V55.012"></path>
    <path fill="#E94F2D" d="M533.445 169.086h-19.829V96.79c0-4.938 4.467-8.988 9.915-8.988 5.447 0 9.914 4.05 9.914 8.988v72.296z"></path>
    <path fill="#563E31" d="M523.531 87.802c5.447 0 9.914 4.05 9.914 8.988v72.296h-9.914V87.802z"></path>
    <path fill="#F5B3C4" d="M533.445 105.58h-19.829v19.556h19.829V105.58z"></path>
    <path fill="#fff" d="M521.351 105.58h-7.735v19.556h7.844l-.109-19.556z"></path>
    <path stroke="#563E31" stroke-miterlimit="10" d="M511.981 105.58h23.099M511.981 125.234h23.099"></path>
    <path fill="#E94F2D" d="M553.275 169.086h-19.83V96.79c0-4.938 4.467-8.988 9.915-8.988 5.448 0 9.915 4.05 9.915 8.988v72.296z"></path>
    <path stroke="#563E31" stroke-miterlimit="10" d="M523.531 88V34.864M523.857 37.432h-2.941M543.687 88V49.975M544.014 52.543h-2.942"></path>
    <path fill="#EDEDED" d="M533.445 148.642h-46.306v3.95h46.306v-3.95z"></path>
    <path stroke="#563E31" stroke-miterlimit="10" stroke-width="2" d="M487.575 148.049v5.136"></path>
    <path fill="#E94F2D" d="M442.468 98.568l-.654-11.852H428.63l-.653 11.852h14.491z"></path>
    <path fill="#563E31" d="M427.432 110.321h15.581l-.545-11.753h-14.491l-.545 11.753z"></path>
    <path fill="#E94F2D" d="M426.778 122.074h16.888l-.654-11.753h-15.58l-.654 11.753z"></path>
    <path fill="#563E31" d="M426.233 133.827h17.978l-.545-11.753h-16.888l-.545 11.753z"></path>
    <path fill="#E94F2D" d="M425.58 145.58h19.285l-.654-11.753h-17.978l-.653 11.753z"></path>
    <path fill="#563E31" d="M425.035 157.333h20.375l-.545-11.654H425.58l-.545 11.654z"></path>
    <path fill="#FFE054" d="M425.58 145.68h19.285v-.1H425.58v.1z"></path>
    <path fill="#E94F2D" d="M425.035 157.432l-.654 11.753h21.682l-.654-11.753h-20.374z"></path>
    <path fill="#FFE054" d="M425.035 157.433h20.375v-.1h-20.375v.1z"></path>
    <path fill="#563E31" d="M442.795 84.444H427.65v2.37h15.145v-2.37z"></path>
    <path stroke="#C1892B" stroke-miterlimit="10" d="M514.487 59.062h-35.083"></path>
    <path fill="#E94F2D" d="M499.342 17.284l-4.576 4.148a3.39 3.39 0 004.576 0c1.199-1.185 1.199-3.062 0-4.148z"></path>
    <path fill="#E94F2D" d="M499.342 17.284l-4.576 4.148c-1.307-1.185-1.307-2.963 0-4.148 1.199-1.185 3.269-1.185 4.576 0z"></path>
    <path fill="#563E31" d="M488.665 166.025h-.654c-1.852 0-3.377-1.383-3.377-3.062 0-1.679 1.525-3.062 3.377-3.062h.654c1.852 0 3.378 1.383 3.378 3.062 0 1.679-1.526 3.062-3.378 3.062zM435.059 171.457h-.654c-1.852 0-3.378-1.383-3.378-3.062 0-1.679 1.526-3.062 3.378-3.062h.654c1.852 0 3.377 1.383 3.377 3.062 0 1.679-1.525 3.062-3.377 3.062z"></path>
    <path fill="#EDEDED" d="M479.948 182.716h-36.935c-5.775 0-10.569-4.247-10.569-9.58v-4.148c0-1.087.98-1.976 2.179-1.976 1.198 0 2.179.889 2.179 1.976v4.148c0 3.061 2.724 5.629 6.211 5.629h36.935c3.378 0 6.211-2.469 6.211-5.629v-9.482c0-1.086.98-1.975 2.179-1.975 1.198 0 2.179.889 2.179 1.975v9.482c0 5.333-4.685 9.58-10.569 9.58z"></path>
    <path stroke="#563E31" stroke-miterlimit="10" d="M463.06 169.185V71.704M471.341 169.185v-4.543M479.73 169.185V71.704"></path>
    <g>
      <path stroke="#563E31" stroke-miterlimit="10" d="M462.951 73.975l16.78 15.21M462.951 73.975l16.78 15.21M479.731 73.975l-16.78 15.21M462.951 89.086l16.78 15.111M462.951 89.086l16.78 15.111M479.731 89.086l-16.78 15.111M462.951 104.197l16.78 15.112M462.951 104.197l16.78 15.112M479.731 104.197l-16.78 15.112M462.951 119.309l16.78 15.111M462.951 119.309l16.78 15.111M479.731 119.309l-16.78 15.111M462.951 134.321l16.78 15.21M462.951 134.321l16.78 15.21M479.731 134.321l-16.78 15.21M462.951 149.432l16.78 15.21M462.951 149.432l16.78 15.21M479.731 149.432l-16.78 15.21"></path>
    </g>
    <path stroke="#563E31" stroke-miterlimit="10" d="M481.801 164.642h-20.92"></path>
    <path fill="#563E31" d="M402.045 192.395h-2.179v-2.864c0-2.864 2.506-5.136 5.666-5.136h2.288v1.975h-2.288c-1.961 0-3.487 1.383-3.487 3.161v2.864zM420.894 192.395h-2.179v-13.037c0-2.173-1.961-3.951-4.358-3.951h-6.755v-1.975h6.755c3.596 0 6.537 2.667 6.537 5.926v13.037zM543.36 87.802c5.448 0 9.915 4.05 9.915 8.988v72.296h-9.915V87.802z"></path>
    <path fill="#F5B3C4" d="M553.275 105.58h-19.83v19.556h19.83V105.58z"></path>
    <path fill="#fff" d="M541.181 105.58h-7.736v19.556h7.736V105.58z"></path>
    <path stroke="#563E31" stroke-miterlimit="10" d="M531.811 105.58h23.099M531.811 125.234h23.099"></path>
    <path fill="#EDEDED" d="M516.231 192.395h-4.359v-4.148c0-5.235 4.685-9.58 10.569-9.58h11.222c3.378 0 6.211-2.47 6.211-5.63v-7.803h4.358v7.803c0 5.235-4.685 9.58-10.569 9.58h-11.222c-3.378 0-6.21 2.469-6.21 5.63v4.148z"></path>
    <g>
      <path fill="#EDEDED" d="M544.123 159.012h-4.358v-7.704c0-6.024-5.448-10.962-12.094-10.962h-40.096v-3.951h40.096c9.043 0 16.452 6.716 16.452 14.913v7.704z"></path>
      <path fill="#fff" d="M550.442 161.876h-16.997v7.309h16.997v-7.309z"></path>
      <path fill="#fff" d="M547.174 164.642h-10.569v-4.445c0-.889.763-1.58 1.743-1.58h7.082c.981 0 1.744.691 1.744 1.58v4.445z"></path>
      <path stroke="#563E31" stroke-miterlimit="10" stroke-width="2" d="M533.336 161.876h17.215M487.575 135.802v5.037"></path>
    </g>
  </g>
</svg>
